<?xml version="1.0" encoding="UTF-8"?>
<svg xmlns="http://www.w3.org/2000/svg" version="1.1" width="200" height="200" viewBox="0 0 200 200"><rect x="0" y="0" width="200" height="200" fill="#ffffff"/><g transform="scale(2.353)"><g transform="translate(0,0)"><path fill-rule="evenodd" d="M8 0L8 1L9 1L9 2L8 2L8 5L9 5L9 6L8 6L8 7L9 7L9 8L8 8L8 11L7 11L7 10L6 10L6 9L7 9L7 8L6 8L6 9L5 9L5 10L3 10L3 9L4 9L4 8L0 8L0 12L1 12L1 10L3 10L3 11L5 11L5 10L6 10L6 11L7 11L7 12L5 12L5 13L4 13L4 12L2 12L2 13L1 13L1 15L2 15L2 16L1 16L1 17L0 17L0 18L2 18L2 20L1 20L1 19L0 19L0 21L1 21L1 22L2 22L2 23L0 23L0 24L1 24L1 25L0 25L0 26L1 26L1 27L3 27L3 26L4 26L4 30L3 30L3 31L4 31L4 33L3 33L3 34L2 34L2 36L1 36L1 35L0 35L0 39L1 39L1 40L2 40L2 41L4 41L4 42L3 42L3 43L0 43L0 45L2 45L2 44L3 44L3 46L2 46L2 47L1 47L1 48L0 48L0 49L1 49L1 50L0 50L0 51L2 51L2 52L3 52L3 53L4 53L4 54L3 54L3 55L2 55L2 56L0 56L0 57L1 57L1 58L3 58L3 59L0 59L0 61L1 61L1 60L3 60L3 61L4 61L4 62L2 62L2 65L3 65L3 66L2 66L2 68L1 68L1 69L2 69L2 70L1 70L1 71L0 71L0 73L2 73L2 74L0 74L0 75L1 75L1 76L0 76L0 77L1 77L1 76L2 76L2 75L3 75L3 76L4 76L4 75L5 75L5 76L6 76L6 77L8 77L8 78L9 78L9 77L8 77L8 76L11 76L11 77L10 77L10 78L11 78L11 77L12 77L12 79L13 79L13 82L12 82L12 81L11 81L11 79L9 79L9 81L8 81L8 85L9 85L9 81L10 81L10 82L11 82L11 83L14 83L14 84L12 84L12 85L18 85L18 84L15 84L15 83L17 83L17 82L16 82L16 81L18 81L18 80L19 80L19 83L20 83L20 81L21 81L21 79L20 79L20 80L19 80L19 79L18 79L18 78L20 78L20 77L21 77L21 78L22 78L22 79L23 79L23 77L24 77L24 80L25 80L25 82L26 82L26 83L24 83L24 82L23 82L23 83L24 83L24 84L23 84L23 85L25 85L25 84L26 84L26 83L27 83L27 82L29 82L29 83L28 83L28 84L27 84L27 85L28 85L28 84L30 84L30 85L32 85L32 83L33 83L33 82L32 82L32 83L31 83L31 84L30 84L30 82L31 82L31 81L35 81L35 83L34 83L34 84L33 84L33 85L34 85L34 84L35 84L35 85L38 85L38 84L39 84L39 85L40 85L40 84L39 84L39 83L37 83L37 84L36 84L36 81L35 81L35 79L36 79L36 80L37 80L37 81L38 81L38 78L37 78L37 77L38 77L38 76L39 76L39 77L40 77L40 78L39 78L39 79L40 79L40 78L42 78L42 80L39 80L39 82L41 82L41 83L43 83L43 84L41 84L41 85L43 85L43 84L45 84L45 83L46 83L46 84L47 84L47 85L49 85L49 84L47 84L47 82L46 82L46 81L47 81L47 80L46 80L46 81L45 81L45 82L44 82L44 81L42 81L42 80L43 80L43 78L44 78L44 80L45 80L45 78L44 78L44 77L45 77L45 76L46 76L46 79L47 79L47 77L48 77L48 76L46 76L46 74L45 74L45 73L46 73L46 72L47 72L47 70L46 70L46 69L47 69L47 68L46 68L46 69L45 69L45 70L44 70L44 68L43 68L43 67L44 67L44 65L45 65L45 66L48 66L48 65L47 65L47 64L45 64L45 63L46 63L46 62L44 62L44 63L43 63L43 62L42 62L42 61L43 61L43 60L42 60L42 61L40 61L40 59L43 59L43 58L44 58L44 60L45 60L45 61L46 61L46 60L47 60L47 61L49 61L49 62L48 62L48 64L49 64L49 66L50 66L50 68L49 68L49 67L48 67L48 68L49 68L49 69L50 69L50 68L51 68L51 70L53 70L53 71L51 71L51 72L53 72L53 73L50 73L50 74L49 74L49 75L51 75L51 76L49 76L49 78L48 78L48 80L50 80L50 79L51 79L51 80L52 80L52 81L51 81L51 82L50 82L50 81L49 81L49 82L48 82L48 83L49 83L49 82L50 82L50 84L51 84L51 82L54 82L54 84L55 84L55 82L56 82L56 81L57 81L57 82L58 82L58 84L57 84L57 85L58 85L58 84L60 84L60 85L61 85L61 84L63 84L63 85L65 85L65 83L63 83L63 82L64 82L64 81L63 81L63 82L61 82L61 78L62 78L62 80L63 80L63 79L64 79L64 80L66 80L66 81L67 81L67 82L70 82L70 84L69 84L69 83L67 83L67 84L66 84L66 85L67 85L67 84L69 84L69 85L70 85L70 84L72 84L72 82L73 82L73 81L72 81L72 82L70 82L70 81L68 81L68 80L67 80L67 78L68 78L68 77L69 77L69 76L70 76L70 78L71 78L71 79L69 79L69 80L71 80L71 79L72 79L72 78L71 78L71 77L73 77L73 79L74 79L74 80L76 80L76 81L77 81L77 83L76 83L76 84L77 84L77 85L78 85L78 84L77 84L77 83L78 83L78 82L79 82L79 81L80 81L80 84L79 84L79 85L85 85L85 84L83 84L83 83L84 83L84 82L85 82L85 81L84 81L84 82L83 82L83 83L82 83L82 84L81 84L81 82L82 82L82 81L81 81L81 78L84 78L84 79L83 79L83 80L84 80L84 79L85 79L85 77L84 77L84 76L85 76L85 75L84 75L84 73L85 73L85 72L84 72L84 69L85 69L85 66L83 66L83 67L84 67L84 68L82 68L82 67L80 67L80 68L79 68L79 67L78 67L78 66L80 66L80 64L79 64L79 63L80 63L80 62L81 62L81 63L84 63L84 64L85 64L85 63L84 63L84 61L85 61L85 59L84 59L84 61L83 61L83 59L82 59L82 57L83 57L83 58L84 58L84 57L83 57L83 56L84 56L84 55L85 55L85 53L84 53L84 49L85 49L85 47L84 47L84 46L83 46L83 47L82 47L82 46L80 46L80 45L79 45L79 44L78 44L78 43L77 43L77 42L80 42L80 41L81 41L81 43L80 43L80 44L82 44L82 45L85 45L85 44L82 44L82 43L85 43L85 42L84 42L84 41L85 41L85 40L84 40L84 38L83 38L83 40L84 40L84 41L81 41L81 40L79 40L79 39L78 39L78 40L77 40L77 41L76 41L76 39L75 39L75 40L74 40L74 41L73 41L73 40L70 40L70 42L72 42L72 43L74 43L74 41L75 41L75 43L77 43L77 44L76 44L76 45L75 45L75 44L72 44L72 45L74 45L74 46L76 46L76 49L77 49L77 47L78 47L78 45L79 45L79 46L80 46L80 47L79 47L79 49L80 49L80 50L79 50L79 51L78 51L78 50L77 50L77 52L76 52L76 51L75 51L75 49L74 49L74 48L75 48L75 47L73 47L73 49L74 49L74 50L73 50L73 52L69 52L69 51L71 51L71 50L72 50L72 49L71 49L71 48L72 48L72 47L71 47L71 48L69 48L69 49L68 49L68 50L67 50L67 51L68 51L68 52L69 52L69 53L70 53L70 54L71 54L71 53L72 53L72 55L74 55L74 56L73 56L73 57L75 57L75 58L76 58L76 59L73 59L73 58L72 58L72 57L71 57L71 55L70 55L70 56L67 56L67 57L66 57L66 55L67 55L67 54L68 54L68 55L69 55L69 54L68 54L68 53L67 53L67 52L65 52L65 51L66 51L66 47L67 47L67 46L66 46L66 45L68 45L68 44L69 44L69 47L70 47L70 46L71 46L71 44L69 44L69 43L67 43L67 44L64 44L64 42L65 42L65 41L66 41L66 42L67 42L67 41L66 41L66 40L68 40L68 39L67 39L67 36L68 36L68 38L69 38L69 39L71 39L71 36L72 36L72 35L71 35L71 34L72 34L72 33L68 33L68 32L67 32L67 31L68 31L68 30L69 30L69 29L70 29L70 27L71 27L71 26L72 26L72 27L74 27L74 28L76 28L76 29L75 29L75 30L74 30L74 29L72 29L72 28L71 28L71 31L72 31L72 30L74 30L74 31L73 31L73 33L74 33L74 34L75 34L75 36L77 36L77 35L78 35L78 34L79 34L79 35L80 35L80 36L81 36L81 35L80 35L80 34L82 34L82 33L83 33L83 32L84 32L84 31L85 31L85 29L84 29L84 28L85 28L85 27L84 27L84 24L83 24L83 23L84 23L84 22L83 22L83 20L84 20L84 19L85 19L85 18L83 18L83 17L84 17L84 15L83 15L83 14L85 14L85 13L84 13L84 12L83 12L83 11L82 11L82 10L83 10L83 8L80 8L80 9L82 9L82 10L81 10L81 11L82 11L82 12L80 12L80 11L78 11L78 10L79 10L79 9L78 9L78 8L77 8L77 6L76 6L76 5L75 5L75 4L76 4L76 3L75 3L75 2L76 2L76 1L77 1L77 0L76 0L76 1L75 1L75 0L74 0L74 3L75 3L75 4L73 4L73 2L72 2L72 1L71 1L71 0L69 0L69 1L68 1L68 0L67 0L67 1L68 1L68 2L66 2L66 4L65 4L65 3L63 3L63 1L64 1L64 2L65 2L65 1L64 1L64 0L63 0L63 1L61 1L61 2L60 2L60 4L58 4L58 3L59 3L59 2L58 2L58 0L57 0L57 4L56 4L56 1L55 1L55 2L53 2L53 3L54 3L54 4L52 4L52 3L51 3L51 2L52 2L52 1L50 1L50 0L49 0L49 2L48 2L48 0L47 0L47 1L46 1L46 0L45 0L45 1L44 1L44 3L45 3L45 4L46 4L46 3L47 3L47 2L48 2L48 4L47 4L47 5L48 5L48 4L50 4L50 5L49 5L49 6L48 6L48 7L47 7L47 6L46 6L46 7L47 7L47 8L46 8L46 9L45 9L45 10L44 10L44 9L42 9L42 11L43 11L43 12L42 12L42 13L40 13L40 12L39 12L39 11L38 11L38 10L37 10L37 9L39 9L39 10L40 10L40 9L41 9L41 8L42 8L42 7L43 7L43 8L45 8L45 5L44 5L44 7L43 7L43 5L42 5L42 4L43 4L43 3L42 3L42 4L38 4L38 3L36 3L36 2L39 2L39 1L40 1L40 0L39 0L39 1L38 1L38 0L37 0L37 1L36 1L36 0L35 0L35 1L34 1L34 0L33 0L33 1L34 1L34 3L33 3L33 4L32 4L32 1L31 1L31 3L27 3L27 4L25 4L25 3L26 3L26 2L25 2L25 3L23 3L23 2L24 2L24 1L26 1L26 0L24 0L24 1L22 1L22 3L21 3L21 1L20 1L20 0L19 0L19 2L18 2L18 1L17 1L17 0L14 0L14 1L12 1L12 2L11 2L11 1L9 1L9 0ZM27 0L27 1L28 1L28 2L30 2L30 0L29 0L29 1L28 1L28 0ZM42 0L42 2L43 2L43 0ZM15 1L15 2L12 2L12 3L11 3L11 4L10 4L10 2L9 2L9 4L10 4L10 5L12 5L12 6L11 6L11 7L10 7L10 6L9 6L9 7L10 7L10 8L12 8L12 9L13 9L13 10L14 10L14 11L13 11L13 14L10 14L10 13L11 13L11 11L12 11L12 10L11 10L11 9L9 9L9 10L10 10L10 12L9 12L9 11L8 11L8 13L6 13L6 14L7 14L7 15L5 15L5 14L4 14L4 13L3 13L3 14L2 14L2 15L3 15L3 16L2 16L2 17L3 17L3 16L5 16L5 17L6 17L6 18L5 18L5 20L4 20L4 18L3 18L3 20L2 20L2 22L4 22L4 23L2 23L2 26L3 26L3 24L4 24L4 25L6 25L6 26L7 26L7 25L6 25L6 24L8 24L8 25L10 25L10 23L11 23L11 24L12 24L12 25L11 25L11 26L12 26L12 25L13 25L13 27L15 27L15 28L16 28L16 27L17 27L17 28L18 28L18 27L20 27L20 28L21 28L21 29L20 29L20 30L19 30L19 29L17 29L17 30L18 30L18 32L17 32L17 31L16 31L16 30L15 30L15 29L13 29L13 28L11 28L11 27L10 27L10 26L9 26L9 28L10 28L10 29L9 29L9 32L10 32L10 35L12 35L12 36L11 36L11 37L10 37L10 36L9 36L9 35L8 35L8 34L7 34L7 33L4 33L4 34L3 34L3 37L4 37L4 38L2 38L2 40L3 40L3 39L4 39L4 41L6 41L6 42L4 42L4 43L3 43L3 44L4 44L4 47L2 47L2 48L1 48L1 49L2 49L2 51L3 51L3 52L4 52L4 51L5 51L5 49L6 49L6 50L8 50L8 51L6 51L6 52L9 52L9 53L10 53L10 51L12 51L12 50L13 50L13 52L15 52L15 53L14 53L14 54L15 54L15 55L19 55L19 52L20 52L20 50L21 50L21 48L22 48L22 50L23 50L23 54L22 54L22 55L20 55L20 57L19 57L19 59L18 59L18 58L17 58L17 56L16 56L16 57L15 57L15 58L16 58L16 59L15 59L15 60L13 60L13 59L14 59L14 55L13 55L13 53L12 53L12 52L11 52L11 53L12 53L12 54L11 54L11 55L10 55L10 54L9 54L9 55L10 55L10 56L9 56L9 57L8 57L8 58L7 58L7 57L4 57L4 55L3 55L3 57L4 57L4 61L5 61L5 62L4 62L4 63L5 63L5 64L7 64L7 65L6 65L6 66L5 66L5 65L4 65L4 66L5 66L5 67L3 67L3 68L4 68L4 69L3 69L3 70L2 70L2 72L3 72L3 75L4 75L4 72L3 72L3 71L6 71L6 72L5 72L5 75L6 75L6 76L7 76L7 75L9 75L9 74L7 74L7 73L6 73L6 72L7 72L7 71L10 71L10 70L11 70L11 71L12 71L12 72L11 72L11 73L10 73L10 75L11 75L11 73L12 73L12 72L13 72L13 74L12 74L12 75L13 75L13 76L12 76L12 77L13 77L13 79L14 79L14 80L17 80L17 78L18 78L18 77L19 77L19 76L21 76L21 77L23 77L23 76L24 76L24 75L25 75L25 80L26 80L26 82L27 82L27 80L26 80L26 78L27 78L27 77L28 77L28 74L29 74L29 75L30 75L30 76L33 76L33 75L34 75L34 77L33 77L33 78L34 78L34 77L35 77L35 76L36 76L36 77L37 77L37 73L39 73L39 71L38 71L38 70L39 70L39 68L41 68L41 69L40 69L40 70L42 70L42 69L43 69L43 68L42 68L42 67L41 67L41 66L40 66L40 65L42 65L42 66L43 66L43 65L44 65L44 64L40 64L40 63L41 63L41 62L40 62L40 61L39 61L39 62L38 62L38 63L37 63L37 61L38 61L38 60L39 60L39 59L40 59L40 58L42 58L42 57L43 57L43 56L44 56L44 58L45 58L45 60L46 60L46 58L48 58L48 59L47 59L47 60L49 60L49 59L50 59L50 60L51 60L51 61L52 61L52 64L51 64L51 62L50 62L50 63L49 63L49 64L51 64L51 65L50 65L50 66L52 66L52 68L53 68L53 69L55 69L55 70L56 70L56 69L55 69L55 68L56 68L56 66L59 66L59 67L60 67L60 65L58 65L58 64L56 64L56 63L55 63L55 62L53 62L53 61L54 61L54 59L53 59L53 60L52 60L52 57L51 57L51 56L50 56L50 55L49 55L49 54L48 54L48 53L50 53L50 54L51 54L51 53L52 53L52 52L51 52L51 51L52 51L52 50L53 50L53 48L55 48L55 49L57 49L57 50L56 50L56 51L55 51L55 50L54 50L54 51L53 51L53 52L54 52L54 51L55 51L55 52L57 52L57 54L58 54L58 53L59 53L59 55L60 55L60 53L59 53L59 52L61 52L61 53L62 53L62 51L64 51L64 50L65 50L65 48L64 48L64 49L63 49L63 47L65 47L65 45L64 45L64 44L62 44L62 42L64 42L64 41L65 41L65 39L66 39L66 38L65 38L65 37L66 37L66 36L64 36L64 37L62 37L62 36L63 36L63 35L68 35L68 33L67 33L67 32L65 32L65 33L64 33L64 31L65 31L65 30L67 30L67 29L69 29L69 28L68 28L68 27L69 27L69 26L71 26L71 25L72 25L72 26L74 26L74 24L73 24L73 23L75 23L75 21L74 21L74 20L73 20L73 18L72 18L72 19L71 19L71 17L68 17L68 16L69 16L69 14L72 14L72 15L71 15L71 16L73 16L73 17L75 17L75 18L74 18L74 19L75 19L75 20L76 20L76 19L78 19L78 18L76 18L76 17L79 17L79 19L81 19L81 18L82 18L82 20L83 20L83 18L82 18L82 17L83 17L83 15L82 15L82 14L80 14L80 12L78 12L78 13L75 13L75 11L77 11L77 10L78 10L78 9L77 9L77 8L76 8L76 6L75 6L75 5L74 5L74 6L73 6L73 7L72 7L72 5L71 5L71 4L72 4L72 2L71 2L71 1L70 1L70 2L69 2L69 3L71 3L71 4L69 4L69 5L68 5L68 3L67 3L67 4L66 4L66 6L65 6L65 10L64 10L64 11L66 11L66 12L65 12L65 13L67 13L67 14L68 14L68 16L67 16L67 17L68 17L68 18L66 18L66 17L65 17L65 15L66 15L66 14L65 14L65 15L63 15L63 14L64 14L64 13L63 13L63 11L62 11L62 12L61 12L61 10L63 10L63 9L64 9L64 6L63 6L63 8L62 8L62 6L61 6L61 5L62 5L62 4L63 4L63 3L61 3L61 5L58 5L58 4L57 4L57 8L59 8L59 9L58 9L58 11L57 11L57 10L56 10L56 9L53 9L53 10L51 10L51 8L47 8L47 9L46 9L46 10L45 10L45 12L43 12L43 13L42 13L42 14L41 14L41 16L39 16L39 17L38 17L38 18L37 18L37 16L35 16L35 15L34 15L34 14L38 14L38 13L39 13L39 15L40 15L40 13L39 13L39 12L38 12L38 11L35 11L35 9L37 9L37 8L36 8L36 6L37 6L37 7L38 7L38 8L39 8L39 9L40 9L40 5L38 5L38 6L37 6L37 4L34 4L34 5L33 5L33 7L34 7L34 8L33 8L33 9L32 9L32 10L33 10L33 11L31 11L31 10L30 10L30 9L28 9L28 4L27 4L27 5L26 5L26 6L25 6L25 4L24 4L24 5L23 5L23 3L22 3L22 5L21 5L21 4L19 4L19 3L20 3L20 2L19 2L19 3L18 3L18 2L17 2L17 4L16 4L16 1ZM35 1L35 2L36 2L36 1ZM40 2L40 3L41 3L41 2ZM45 2L45 3L46 3L46 2ZM49 2L49 3L50 3L50 4L51 4L51 3L50 3L50 2ZM12 4L12 5L13 5L13 6L12 6L12 7L13 7L13 6L14 6L14 7L15 7L15 6L16 6L16 8L18 8L18 9L16 9L16 10L15 10L15 11L14 11L14 12L16 12L16 14L17 14L17 15L20 15L20 14L19 14L19 13L18 13L18 14L17 14L17 12L16 12L16 11L18 11L18 12L21 12L21 14L22 14L22 15L21 15L21 16L22 16L22 20L23 20L23 21L24 21L24 22L23 22L23 23L24 23L24 22L25 22L25 21L26 21L26 23L25 23L25 24L23 24L23 26L24 26L24 27L23 27L23 28L25 28L25 26L27 26L27 27L26 27L26 28L28 28L28 30L27 30L27 31L28 31L28 32L27 32L27 37L25 37L25 36L26 36L26 35L24 35L24 34L21 34L21 35L24 35L24 36L23 36L23 38L22 38L22 36L20 36L20 38L17 38L17 39L16 39L16 34L18 34L18 35L17 35L17 37L18 37L18 36L19 36L19 35L20 35L20 33L21 33L21 32L22 32L22 33L23 33L23 32L25 32L25 34L26 34L26 30L24 30L24 31L21 31L21 30L23 30L23 29L21 29L21 30L20 30L20 31L19 31L19 34L18 34L18 33L16 33L16 32L15 32L15 31L14 31L14 33L12 33L12 31L13 31L13 29L10 29L10 30L11 30L11 31L10 31L10 32L11 32L11 33L12 33L12 35L14 35L14 37L13 37L13 38L12 38L12 39L13 39L13 41L12 41L12 40L11 40L11 39L10 39L10 38L4 38L4 39L5 39L5 40L6 40L6 41L8 41L8 42L6 42L6 43L8 43L8 42L10 42L10 43L9 43L9 44L12 44L12 45L8 45L8 44L5 44L5 43L4 43L4 44L5 44L5 47L7 47L7 46L9 46L9 47L8 47L8 48L9 48L9 50L11 50L11 49L10 49L10 47L12 47L12 48L13 48L13 47L14 47L14 49L13 49L13 50L14 50L14 51L15 51L15 52L16 52L16 53L15 53L15 54L16 54L16 53L17 53L17 54L18 54L18 52L19 52L19 50L16 50L16 51L15 51L15 49L18 49L18 47L17 47L17 48L15 48L15 47L14 47L14 46L13 46L13 45L15 45L15 44L14 44L14 43L16 43L16 42L17 42L17 43L18 43L18 44L16 44L16 46L17 46L17 45L18 45L18 44L19 44L19 42L20 42L20 41L17 41L17 40L19 40L19 39L20 39L20 38L21 38L21 39L22 39L22 40L21 40L21 41L22 41L22 40L25 40L25 39L26 39L26 38L27 38L27 37L29 37L29 38L28 38L28 40L27 40L27 41L28 41L28 42L26 42L26 41L24 41L24 42L25 42L25 43L24 43L24 44L22 44L22 45L24 45L24 47L23 47L23 46L22 46L22 48L23 48L23 50L24 50L24 49L25 49L25 51L24 51L24 52L25 52L25 51L27 51L27 52L26 52L26 53L27 53L27 54L26 54L26 56L24 56L24 57L23 57L23 56L22 56L22 57L23 57L23 58L22 58L22 60L21 60L21 57L20 57L20 59L19 59L19 60L18 60L18 59L17 59L17 62L16 62L16 61L14 61L14 63L15 63L15 65L12 65L12 64L13 64L13 60L12 60L12 59L11 59L11 61L12 61L12 62L10 62L10 60L9 60L9 59L10 59L10 58L11 58L11 56L13 56L13 55L11 55L11 56L10 56L10 57L9 57L9 59L8 59L8 60L9 60L9 62L10 62L10 63L9 63L9 64L8 64L8 65L7 65L7 66L6 66L6 67L5 67L5 69L4 69L4 70L5 70L5 69L7 69L7 70L6 70L6 71L7 71L7 70L8 70L8 69L10 69L10 68L11 68L11 70L12 70L12 71L14 71L14 70L17 70L17 71L16 71L16 72L17 72L17 71L18 71L18 73L15 73L15 75L14 75L14 74L13 74L13 75L14 75L14 77L15 77L15 76L16 76L16 77L18 77L18 76L16 76L16 75L19 75L19 74L18 74L18 73L20 73L20 75L21 75L21 76L22 76L22 75L21 75L21 74L22 74L22 71L24 71L24 70L25 70L25 69L26 69L26 71L25 71L25 72L23 72L23 74L24 74L24 73L25 73L25 75L27 75L27 73L28 73L28 72L30 72L30 73L29 73L29 74L32 74L32 75L33 75L33 74L34 74L34 75L35 75L35 74L34 74L34 70L33 70L33 68L37 68L37 70L38 70L38 68L39 68L39 67L40 67L40 66L38 66L38 65L39 65L39 64L37 64L37 63L36 63L36 61L37 61L37 60L35 60L35 59L34 59L34 60L35 60L35 63L34 63L34 64L32 64L32 65L31 65L31 66L30 66L30 67L29 67L29 68L28 68L28 66L29 66L29 65L30 65L30 64L29 64L29 65L27 65L27 63L24 63L24 64L25 64L25 66L24 66L24 67L23 67L23 64L22 64L22 63L23 63L23 62L24 62L24 61L25 61L25 62L27 62L27 61L28 61L28 63L30 63L30 61L31 61L31 62L32 62L32 63L33 63L33 62L32 62L32 61L33 61L33 60L32 60L32 61L31 61L31 59L30 59L30 57L32 57L32 59L33 59L33 57L35 57L35 56L38 56L38 57L41 57L41 56L42 56L42 55L43 55L43 54L42 54L42 52L44 52L44 53L45 53L45 52L46 52L46 50L45 50L45 49L47 49L47 48L46 48L46 47L48 47L48 49L50 49L50 50L47 50L47 53L46 53L46 55L45 55L45 58L46 58L46 57L47 57L47 55L48 55L48 56L49 56L49 55L48 55L48 54L47 54L47 53L48 53L48 51L51 51L51 47L52 47L52 48L53 48L53 45L51 45L51 47L50 47L50 46L49 46L49 45L50 45L50 44L49 44L49 43L53 43L53 44L54 44L54 43L53 43L53 41L54 41L54 42L55 42L55 41L57 41L57 40L55 40L55 39L59 39L59 40L58 40L58 42L57 42L57 43L56 43L56 44L55 44L55 46L56 46L56 47L55 47L55 48L56 48L56 47L58 47L58 48L60 48L60 49L62 49L62 47L61 47L61 46L59 46L59 44L60 44L60 45L62 45L62 44L61 44L61 43L60 43L60 42L62 42L62 41L63 41L63 40L62 40L62 41L60 41L60 40L61 40L61 38L60 38L60 37L61 37L61 36L62 36L62 35L63 35L63 34L64 34L64 33L63 33L63 31L64 31L64 30L63 30L63 29L60 29L60 28L59 28L59 27L58 27L58 28L55 28L55 27L56 27L56 26L55 26L55 24L54 24L54 25L53 25L53 26L52 26L52 24L53 24L53 23L55 23L55 22L53 22L53 21L52 21L52 20L51 20L51 18L54 18L54 16L55 16L55 18L56 18L56 19L55 19L55 20L57 20L57 22L58 22L58 23L59 23L59 24L60 24L60 25L59 25L59 26L60 26L60 27L61 27L61 28L65 28L65 29L67 29L67 27L68 27L68 26L69 26L69 25L70 25L70 24L69 24L69 25L67 25L67 24L66 24L66 25L65 25L65 23L68 23L68 22L70 22L70 23L71 23L71 24L72 24L72 25L73 25L73 24L72 24L72 23L73 23L73 21L72 21L72 22L71 22L71 21L69 21L69 19L67 19L67 20L64 20L64 18L65 18L65 17L64 17L64 18L63 18L63 15L61 15L61 13L59 13L59 14L55 14L55 13L56 13L56 12L53 12L53 11L54 11L54 10L53 10L53 11L52 11L52 12L51 12L51 13L49 13L49 12L50 12L50 11L51 11L51 10L50 10L50 9L48 9L48 14L47 14L47 15L49 15L49 18L48 18L48 16L47 16L47 17L45 17L45 16L46 16L46 15L44 15L44 14L45 14L45 13L46 13L46 12L47 12L47 10L46 10L46 12L45 12L45 13L44 13L44 14L42 14L42 17L40 17L40 18L38 18L38 19L37 19L37 21L36 21L36 20L35 20L35 21L36 21L36 22L38 22L38 23L37 23L37 24L35 24L35 23L34 23L34 24L32 24L32 23L33 23L33 22L32 22L32 23L30 23L30 22L31 22L31 21L33 21L33 19L35 19L35 18L36 18L36 17L35 17L35 16L33 16L33 17L34 17L34 18L32 18L32 16L31 16L31 17L30 17L30 14L31 14L31 15L33 15L33 14L34 14L34 13L31 13L31 12L30 12L30 13L28 13L28 12L29 12L29 11L30 11L30 10L29 10L29 11L28 11L28 12L27 12L27 13L25 13L25 12L26 12L26 11L27 11L27 10L28 10L28 9L27 9L27 8L24 8L24 7L25 7L25 6L24 6L24 7L23 7L23 5L22 5L22 8L24 8L24 9L23 9L23 10L24 10L24 11L22 11L22 12L21 12L21 11L20 11L20 10L21 10L21 5L20 5L20 7L19 7L19 6L18 6L18 7L17 7L17 6L16 6L16 4L14 4L14 5L13 5L13 4ZM17 4L17 5L18 5L18 4ZM29 5L29 8L32 8L32 5ZM34 5L34 7L35 7L35 5ZM41 5L41 7L42 7L42 5ZM51 5L51 7L52 7L52 5ZM53 5L53 8L56 8L56 5ZM69 5L69 6L68 6L68 7L69 7L69 8L67 8L67 6L66 6L66 9L69 9L69 10L68 10L68 11L67 11L67 12L68 12L68 14L69 14L69 13L70 13L70 12L69 12L69 10L70 10L70 11L71 11L71 12L72 12L72 14L73 14L73 12L74 12L74 11L73 11L73 10L72 10L72 9L71 9L71 10L70 10L70 9L69 9L69 8L71 8L71 5ZM26 6L26 7L27 7L27 6ZM30 6L30 7L31 7L31 6ZM38 6L38 7L39 7L39 6ZM49 6L49 7L50 7L50 6ZM54 6L54 7L55 7L55 6ZM58 6L58 7L59 7L59 8L60 8L60 9L62 9L62 8L61 8L61 6L60 6L60 7L59 7L59 6ZM69 6L69 7L70 7L70 6ZM74 6L74 7L73 7L73 9L74 9L74 7L75 7L75 6ZM18 7L18 8L19 8L19 7ZM13 8L13 9L15 9L15 8ZM34 8L34 9L35 9L35 8ZM84 8L84 10L85 10L85 8ZM26 9L26 10L25 10L25 11L26 11L26 10L27 10L27 9ZM75 9L75 10L76 10L76 9ZM18 10L18 11L19 11L19 10ZM55 10L55 11L56 11L56 10ZM59 10L59 11L58 11L58 12L57 12L57 13L58 13L58 12L60 12L60 10ZM72 11L72 12L73 12L73 11ZM22 12L22 14L23 14L23 15L22 15L22 16L23 16L23 19L24 19L24 18L25 18L25 19L27 19L27 21L28 21L28 23L26 23L26 24L25 24L25 25L27 25L27 26L28 26L28 24L30 24L30 23L29 23L29 22L30 22L30 21L31 21L31 20L32 20L32 19L30 19L30 17L29 17L29 16L27 16L27 18L25 18L25 15L27 15L27 14L28 14L28 13L27 13L27 14L23 14L23 12ZM35 12L35 13L37 13L37 12ZM52 12L52 13L51 13L51 14L50 14L50 15L51 15L51 16L52 16L52 13L53 13L53 12ZM62 13L62 14L63 14L63 13ZM74 13L74 14L75 14L75 13ZM78 13L78 14L79 14L79 17L80 17L80 18L81 18L81 16L80 16L80 14L79 14L79 13ZM13 14L13 15L11 15L11 16L13 16L13 15L14 15L14 16L16 16L16 17L17 17L17 16L16 16L16 15L14 15L14 14ZM53 14L53 16L54 16L54 15L55 15L55 16L57 16L57 15L55 15L55 14ZM76 14L76 15L73 15L73 16L75 16L75 17L76 17L76 15L77 15L77 14ZM7 15L7 16L6 16L6 17L7 17L7 18L6 18L6 19L7 19L7 20L5 20L5 21L7 21L7 22L6 22L6 23L7 23L7 22L8 22L8 23L9 23L9 22L8 22L8 21L9 21L9 18L10 18L10 15L9 15L9 16L8 16L8 15ZM43 16L43 17L42 17L42 18L43 18L43 17L44 17L44 16ZM58 16L58 17L57 17L57 18L58 18L58 17L59 17L59 19L58 19L58 21L60 21L60 20L59 20L59 19L60 19L60 17L62 17L62 16L60 16L60 17L59 17L59 16ZM12 17L12 18L11 18L11 20L10 20L10 21L11 21L11 22L12 22L12 21L13 21L13 25L14 25L14 24L15 24L15 25L16 25L16 26L15 26L15 27L16 27L16 26L19 26L19 25L20 25L20 27L21 27L21 28L22 28L22 27L21 27L21 26L22 26L22 24L21 24L21 19L19 19L19 20L18 20L18 19L16 19L16 18L15 18L15 17L14 17L14 18L15 18L15 20L14 20L14 21L13 21L13 20L12 20L12 18L13 18L13 17ZM18 17L18 18L21 18L21 17ZM50 17L50 18L49 18L49 20L47 20L47 19L48 19L48 18L46 18L46 19L44 19L44 21L43 21L43 22L45 22L45 24L43 24L43 23L42 23L42 21L38 21L38 22L41 22L41 23L38 23L38 24L37 24L37 25L35 25L35 24L34 24L34 26L32 26L32 24L31 24L31 25L30 25L30 26L29 26L29 27L28 27L28 28L30 28L30 27L31 27L31 28L33 28L33 27L34 27L34 29L35 29L35 30L33 30L33 32L35 32L35 33L33 33L33 35L34 35L34 36L37 36L37 37L34 37L34 38L31 38L31 37L33 37L33 36L32 36L32 34L31 34L31 35L29 35L29 34L30 34L30 33L28 33L28 35L29 35L29 36L30 36L30 38L29 38L29 39L30 39L30 40L29 40L29 44L27 44L27 43L26 43L26 44L27 44L27 45L28 45L28 48L29 48L29 49L28 49L28 52L27 52L27 53L28 53L28 52L29 52L29 51L30 51L30 52L31 52L31 51L30 51L30 50L32 50L32 51L34 51L34 50L35 50L35 51L38 51L38 52L35 52L35 54L34 54L34 55L36 55L36 54L37 54L37 55L39 55L39 56L41 56L41 55L42 55L42 54L41 54L41 52L42 52L42 50L44 50L44 51L45 51L45 50L44 50L44 49L45 49L45 48L43 48L43 47L41 47L41 46L42 46L42 45L39 45L39 44L41 44L41 43L42 43L42 44L43 44L43 43L44 43L44 45L43 45L43 46L44 46L44 47L46 47L46 46L48 46L48 47L49 47L49 48L50 48L50 47L49 47L49 46L48 46L48 45L49 45L49 44L48 44L48 43L49 43L49 42L48 42L48 41L50 41L50 42L52 42L52 40L54 40L54 41L55 41L55 40L54 40L54 38L53 38L53 37L54 37L54 36L52 36L52 35L53 35L53 34L55 34L55 35L56 35L56 33L52 33L52 32L50 32L50 34L49 34L49 32L47 32L47 31L48 31L48 30L49 30L49 29L50 29L50 30L52 30L52 28L51 28L51 26L50 26L50 27L49 27L49 25L50 25L50 24L52 24L52 23L53 23L53 22L51 22L51 20L50 20L50 18L51 18L51 17ZM40 18L40 19L39 19L39 20L41 20L41 18ZM61 18L61 22L60 22L60 24L61 24L61 22L62 22L62 21L64 21L64 20L63 20L63 19L62 19L62 18ZM75 18L75 19L76 19L76 18ZM42 19L42 20L43 20L43 19ZM53 19L53 20L54 20L54 19ZM7 20L7 21L8 21L8 20ZM24 20L24 21L25 21L25 20ZM28 20L28 21L30 21L30 20ZM46 20L46 21L45 21L45 22L46 22L46 24L45 24L45 25L43 25L43 26L42 26L42 24L41 24L41 29L42 29L42 27L43 27L43 26L44 26L44 30L45 30L45 31L44 31L44 32L45 32L45 31L47 31L47 29L48 29L48 27L46 27L46 28L45 28L45 25L46 25L46 24L48 24L48 25L47 25L47 26L48 26L48 25L49 25L49 24L50 24L50 22L49 22L49 21L50 21L50 20L49 20L49 21L47 21L47 20ZM79 20L79 21L80 21L80 25L79 25L79 22L78 22L78 21L76 21L76 22L77 22L77 23L78 23L78 24L77 24L77 25L75 25L75 27L76 27L76 28L78 28L78 27L79 27L79 26L80 26L80 25L81 25L81 27L80 27L80 28L81 28L81 29L82 29L82 30L81 30L81 31L82 31L82 32L83 32L83 31L84 31L84 29L82 29L82 28L83 28L83 27L82 27L82 26L83 26L83 24L82 24L82 25L81 25L81 23L83 23L83 22L82 22L82 21L80 21L80 20ZM14 21L14 22L15 22L15 21ZM17 21L17 23L16 23L16 25L17 25L17 23L18 23L18 22L20 22L20 21ZM46 21L46 22L47 22L47 23L49 23L49 22L47 22L47 21ZM65 21L65 22L64 22L64 23L65 23L65 22L66 22L66 21ZM67 21L67 22L68 22L68 21ZM4 23L4 24L5 24L5 23ZM62 23L62 25L61 25L61 27L63 27L63 26L64 26L64 25L63 25L63 23ZM20 24L20 25L21 25L21 24ZM39 24L39 25L37 25L37 26L36 26L36 28L39 28L39 30L40 30L40 33L39 33L39 31L38 31L38 30L36 30L36 32L37 32L37 33L39 33L39 37L37 37L37 38L39 38L39 37L40 37L40 35L41 35L41 38L40 38L40 40L41 40L41 41L40 41L40 42L42 42L42 43L43 43L43 42L44 42L44 41L45 41L45 45L44 45L44 46L46 46L46 45L47 45L47 43L48 43L48 42L47 42L47 41L46 41L46 39L44 39L44 38L45 38L45 37L44 37L44 38L42 38L42 37L43 37L43 33L42 33L42 34L40 34L40 33L41 33L41 32L42 32L42 31L41 31L41 30L40 30L40 28L39 28L39 27L40 27L40 26L39 26L39 25L40 25L40 24ZM56 24L56 25L58 25L58 24ZM62 25L62 26L63 26L63 25ZM66 25L66 27L65 27L65 28L66 28L66 27L67 27L67 25ZM34 26L34 27L35 27L35 26ZM38 26L38 27L39 27L39 26ZM53 26L53 28L54 28L54 27L55 27L55 26ZM76 26L76 27L78 27L78 26ZM5 27L5 28L8 28L8 27ZM81 27L81 28L82 28L82 27ZM0 28L0 32L1 32L1 33L2 33L2 32L1 32L1 31L2 31L2 29L1 29L1 28ZM46 28L46 29L45 29L45 30L46 30L46 29L47 29L47 28ZM50 28L50 29L51 29L51 28ZM5 29L5 32L8 32L8 29ZM29 29L29 32L32 32L32 29ZM53 29L53 32L56 32L56 29ZM57 29L57 31L58 31L58 32L57 32L57 33L58 33L58 35L57 35L57 36L56 36L56 37L55 37L55 38L58 38L58 37L57 37L57 36L58 36L58 35L60 35L60 36L59 36L59 37L60 37L60 36L61 36L61 34L62 34L62 33L61 33L61 32L59 32L59 30L60 30L60 31L62 31L62 30L60 30L60 29ZM77 29L77 32L80 32L80 29ZM6 30L6 31L7 31L7 30ZM30 30L30 31L31 31L31 30ZM54 30L54 31L55 31L55 30ZM78 30L78 31L79 31L79 30ZM82 30L82 31L83 31L83 30ZM75 31L75 32L74 32L74 33L75 33L75 34L76 34L76 35L77 35L77 34L78 34L78 33L77 33L77 34L76 34L76 33L75 33L75 32L76 32L76 31ZM46 32L46 33L45 33L45 34L44 34L44 36L46 36L46 35L48 35L48 34L46 34L46 33L47 33L47 32ZM14 33L14 35L15 35L15 34L16 34L16 33ZM51 33L51 34L50 34L50 35L51 35L51 34L52 34L52 33ZM66 33L66 34L67 34L67 33ZM79 33L79 34L80 34L80 33ZM84 33L84 34L85 34L85 33ZM4 34L4 35L5 35L5 36L6 36L6 37L7 37L7 36L6 36L6 35L7 35L7 34L6 34L6 35L5 35L5 34ZM36 34L36 35L37 35L37 36L38 36L38 34ZM45 34L45 35L46 35L46 34ZM69 34L69 36L70 36L70 34ZM73 35L73 36L74 36L74 35ZM82 35L82 37L85 37L85 35L84 35L84 36L83 36L83 35ZM47 36L47 37L48 37L48 38L50 38L50 37L51 37L51 36L50 36L50 37L49 37L49 36ZM24 37L24 38L25 38L25 37ZM69 37L69 38L70 38L70 37ZM74 37L74 38L76 38L76 37ZM77 37L77 38L78 38L78 37ZM80 37L80 38L81 38L81 39L82 39L82 38L81 38L81 37ZM13 38L13 39L15 39L15 40L16 40L16 39L15 39L15 38ZM30 38L30 39L31 39L31 38ZM34 38L34 39L32 39L32 41L33 41L33 40L34 40L34 39L35 39L35 38ZM41 38L41 39L42 39L42 38ZM52 38L52 39L51 39L51 40L50 40L50 41L51 41L51 40L52 40L52 39L53 39L53 38ZM59 38L59 39L60 39L60 38ZM6 39L6 40L9 40L9 41L10 41L10 42L11 42L11 43L12 43L12 44L13 44L13 43L14 43L14 42L11 42L11 40L10 40L10 39ZM36 39L36 40L37 40L37 39ZM43 39L43 40L42 40L42 42L43 42L43 41L44 41L44 39ZM48 39L48 40L49 40L49 39ZM38 40L38 41L36 41L36 42L35 42L35 41L34 41L34 42L33 42L33 43L32 43L32 42L31 42L31 43L30 43L30 47L29 47L29 48L30 48L30 49L29 49L29 50L30 50L30 49L31 49L31 46L32 46L32 47L33 47L33 45L36 45L36 46L35 46L35 47L34 47L34 49L33 49L33 50L34 50L34 49L36 49L36 50L39 50L39 49L40 49L40 48L39 48L39 47L40 47L40 46L38 46L38 45L36 45L36 44L34 44L34 43L38 43L38 44L39 44L39 42L38 42L38 41L39 41L39 40ZM15 41L15 42L16 42L16 41ZM72 41L72 42L73 42L73 41ZM21 42L21 43L20 43L20 44L21 44L21 43L22 43L22 42ZM46 42L46 43L47 43L47 42ZM57 43L57 44L56 44L56 46L57 46L57 44L59 44L59 43ZM24 44L24 45L25 45L25 46L26 46L26 45L25 45L25 44ZM31 44L31 45L33 45L33 44ZM6 45L6 46L7 46L7 45ZM63 45L63 46L64 46L64 45ZM76 45L76 46L77 46L77 45ZM12 46L12 47L13 47L13 46ZM20 46L20 47L19 47L19 49L20 49L20 47L21 47L21 46ZM36 46L36 47L35 47L35 48L38 48L38 47L37 47L37 46ZM58 46L58 47L59 47L59 46ZM24 47L24 48L25 48L25 49L27 49L27 48L26 48L26 47ZM60 47L60 48L61 48L61 47ZM80 47L80 49L81 49L81 50L80 50L80 51L82 51L82 52L81 52L81 53L82 53L82 52L83 52L83 51L82 51L82 50L83 50L83 48L82 48L82 49L81 49L81 47ZM2 48L2 49L5 49L5 48ZM6 48L6 49L7 49L7 48ZM42 48L42 49L41 49L41 50L40 50L40 51L39 51L39 52L38 52L38 53L40 53L40 51L41 51L41 50L42 50L42 49L43 49L43 48ZM58 49L58 50L59 50L59 49ZM69 49L69 50L68 50L68 51L69 51L69 50L70 50L70 49ZM3 50L3 51L4 51L4 50ZM17 51L17 52L18 52L18 51ZM57 51L57 52L58 52L58 51ZM74 51L74 53L75 53L75 51ZM0 52L0 53L1 53L1 54L2 54L2 53L1 53L1 52ZM21 52L21 53L20 53L20 54L21 54L21 53L22 53L22 52ZM33 52L33 53L34 53L34 52ZM63 52L63 55L64 55L64 56L62 56L62 54L61 54L61 56L62 56L62 57L60 57L60 56L59 56L59 57L58 57L58 55L57 55L57 57L56 57L56 58L55 58L55 59L56 59L56 60L55 60L55 61L56 61L56 60L57 60L57 62L59 62L59 63L63 63L63 64L62 64L62 65L64 65L64 66L63 66L63 67L62 67L62 66L61 66L61 68L59 68L59 69L58 69L58 67L57 67L57 69L58 69L58 72L55 72L55 74L54 74L54 73L53 73L53 74L51 74L51 75L52 75L52 76L53 76L53 75L55 75L55 76L56 76L56 75L58 75L58 77L57 77L57 78L59 78L59 79L60 79L60 77L61 77L61 76L62 76L62 77L64 77L64 76L63 76L63 75L64 75L64 74L65 74L65 73L66 73L66 76L65 76L65 78L67 78L67 77L68 77L68 75L69 75L69 74L71 74L71 75L70 75L70 76L73 76L73 77L74 77L74 79L75 79L75 77L76 77L76 76L78 76L78 75L79 75L79 74L77 74L77 73L78 73L78 71L77 71L77 69L78 69L78 70L80 70L80 71L79 71L79 73L81 73L81 72L80 72L80 71L82 71L82 70L81 70L81 69L79 69L79 68L77 68L77 66L78 66L78 65L79 65L79 64L78 64L78 65L77 65L77 66L76 66L76 67L75 67L75 65L76 65L76 64L75 64L75 63L76 63L76 61L77 61L77 60L78 60L78 57L77 57L77 59L76 59L76 60L73 60L73 59L72 59L72 60L71 60L71 61L69 61L69 60L66 60L66 62L65 62L65 60L64 60L64 61L63 61L63 62L62 62L62 61L60 61L60 60L62 60L62 59L61 59L61 58L63 58L63 59L67 59L67 58L69 58L69 59L70 59L70 58L71 58L71 57L70 57L70 58L69 58L69 57L67 57L67 58L66 58L66 57L65 57L65 54L67 54L67 53L65 53L65 54L64 54L64 52ZM5 53L5 56L8 56L8 53ZM24 53L24 54L23 54L23 55L24 55L24 54L25 54L25 53ZM29 53L29 56L32 56L32 53ZM53 53L53 56L56 56L56 53ZM77 53L77 56L80 56L80 53ZM83 53L83 54L82 54L82 56L81 56L81 57L79 57L79 61L78 61L78 62L79 62L79 61L81 61L81 62L82 62L82 59L81 59L81 57L82 57L82 56L83 56L83 55L84 55L84 53ZM6 54L6 55L7 55L7 54ZM30 54L30 55L31 55L31 54ZM54 54L54 55L55 55L55 54ZM74 54L74 55L75 55L75 57L76 57L76 55L75 55L75 54ZM78 54L78 55L79 55L79 54ZM27 55L27 56L26 56L26 59L27 59L27 60L28 60L28 61L30 61L30 59L29 59L29 58L28 58L28 59L27 59L27 56L28 56L28 55ZM12 57L12 58L13 58L13 57ZM36 57L36 58L37 58L37 57ZM48 57L48 58L50 58L50 59L51 59L51 58L50 58L50 57ZM57 57L57 58L58 58L58 59L57 59L57 60L58 60L58 61L59 61L59 62L60 62L60 61L59 61L59 60L60 60L60 59L59 59L59 58L60 58L60 57L59 57L59 58L58 58L58 57ZM5 58L5 61L7 61L7 60L6 60L6 59L7 59L7 58ZM23 58L23 59L24 59L24 60L25 60L25 61L26 61L26 60L25 60L25 59L24 59L24 58ZM80 59L80 60L81 60L81 59ZM19 60L19 62L17 62L17 63L18 63L18 65L17 65L17 66L13 66L13 67L11 67L11 68L12 68L12 69L13 69L13 70L14 70L14 69L13 69L13 67L16 67L16 68L17 68L17 67L18 67L18 69L17 69L17 70L19 70L19 71L20 71L20 69L21 69L21 70L24 70L24 69L25 69L25 68L26 68L26 69L28 69L28 70L27 70L27 71L26 71L26 72L25 72L25 73L27 73L27 71L29 71L29 70L30 70L30 71L31 71L31 73L33 73L33 71L32 71L32 70L30 70L30 69L32 69L32 68L29 68L29 69L28 69L28 68L27 68L27 66L25 66L25 67L24 67L24 69L23 69L23 67L20 67L20 66L22 66L22 64L21 64L21 63L22 63L22 61L23 61L23 60L22 60L22 61L20 61L20 60ZM72 60L72 61L71 61L71 62L66 62L66 63L65 63L65 64L66 64L66 65L67 65L67 66L69 66L69 67L67 67L67 69L68 69L68 68L69 68L69 70L65 70L65 71L63 71L63 72L62 72L62 71L61 71L61 70L60 70L60 69L59 69L59 70L60 70L60 71L59 71L59 72L58 72L58 74L59 74L59 75L61 75L61 72L62 72L62 74L63 74L63 73L64 73L64 72L65 72L65 71L70 71L70 72L68 72L68 73L70 73L70 72L71 72L71 71L72 71L72 72L73 72L73 73L75 73L75 74L73 74L73 75L74 75L74 77L75 77L75 76L76 76L76 75L77 75L77 74L76 74L76 73L77 73L77 71L76 71L76 72L73 72L73 71L72 71L72 70L73 70L73 69L75 69L75 68L73 68L73 69L72 69L72 70L71 70L71 71L70 71L70 69L71 69L71 67L74 67L74 65L73 65L73 64L71 64L71 65L70 65L70 66L69 66L69 65L67 65L67 63L68 63L68 64L70 64L70 63L71 63L71 62L72 62L72 63L73 63L73 62L72 62L72 61L73 61L73 60ZM74 61L74 62L75 62L75 61ZM0 62L0 64L1 64L1 62ZM5 62L5 63L8 63L8 62ZM19 62L19 65L18 65L18 66L20 66L20 65L21 65L21 64L20 64L20 62ZM39 62L39 63L40 63L40 62ZM10 63L10 64L9 64L9 65L8 65L8 66L11 66L11 65L10 65L10 64L12 64L12 63ZM34 64L34 65L32 65L32 67L33 67L33 66L34 66L34 65L35 65L35 67L36 67L36 66L37 66L37 64ZM52 65L52 66L53 66L53 65ZM54 65L54 67L55 67L55 66L56 66L56 65ZM0 66L0 67L1 67L1 66ZM64 66L64 67L63 67L63 68L64 68L64 69L65 69L65 68L66 68L66 67L65 67L65 66ZM6 67L6 68L8 68L8 67ZM9 67L9 68L10 68L10 67ZM19 67L19 68L20 68L20 67ZM64 67L64 68L65 68L65 67ZM61 68L61 69L62 69L62 70L63 70L63 69L62 69L62 68ZM35 69L35 73L37 73L37 72L36 72L36 69ZM43 70L43 71L44 71L44 70ZM48 70L48 73L47 73L47 74L48 74L48 73L49 73L49 72L50 72L50 70ZM40 71L40 74L41 74L41 73L42 73L42 74L44 74L44 75L45 75L45 74L44 74L44 73L45 73L45 72L46 72L46 71L45 71L45 72L41 72L41 71ZM53 71L53 72L54 72L54 71ZM60 71L60 72L59 72L59 74L60 74L60 72L61 72L61 71ZM8 72L8 73L9 73L9 72ZM20 72L20 73L21 73L21 72ZM82 72L82 73L84 73L84 72ZM56 73L56 74L57 74L57 73ZM6 74L6 75L7 75L7 74ZM38 74L38 75L39 75L39 74ZM75 74L75 75L76 75L76 74ZM80 74L80 76L81 76L81 77L82 77L82 76L84 76L84 75L82 75L82 76L81 76L81 74ZM40 75L40 77L42 77L42 78L43 78L43 77L44 77L44 76L41 76L41 75ZM59 76L59 77L60 77L60 76ZM66 76L66 77L67 77L67 76ZM29 77L29 80L32 80L32 77ZM50 77L50 78L49 78L49 79L50 79L50 78L51 78L51 79L52 79L52 78L51 78L51 77ZM53 77L53 80L56 80L56 77ZM77 77L77 80L80 80L80 77ZM30 78L30 79L31 79L31 78ZM36 78L36 79L37 79L37 78ZM54 78L54 79L55 79L55 78ZM78 78L78 79L79 79L79 78ZM33 79L33 80L34 80L34 79ZM57 79L57 81L58 81L58 79ZM22 80L22 81L23 81L23 80ZM59 80L59 81L60 81L60 80ZM29 81L29 82L30 82L30 81ZM41 81L41 82L42 82L42 81ZM54 81L54 82L55 82L55 81ZM21 82L21 83L22 83L22 82ZM60 83L60 84L61 84L61 83ZM20 84L20 85L22 85L22 84ZM74 84L74 85L75 85L75 84ZM0 0L0 7L7 7L7 0ZM1 1L1 6L6 6L6 1ZM2 2L2 5L5 5L5 2ZM78 0L78 7L85 7L85 0ZM79 1L79 6L84 6L84 1ZM80 2L80 5L83 5L83 2ZM0 78L0 85L7 85L7 78ZM1 79L1 84L6 84L6 79ZM2 80L2 83L5 83L5 80Z" fill="#000000"/></g></g></svg>
