<?xml version="1.0" encoding="UTF-8"?>
<svg xmlns="http://www.w3.org/2000/svg" version="1.1" width="80" height="80" viewBox="0 0 80 80"><rect x="0" y="0" width="80" height="80" fill="#ffffff"/><g transform="scale(1.404)"><g transform="translate(0,0)"><path fill-rule="evenodd" d="M8 0L8 1L9 1L9 2L8 2L8 5L9 5L9 6L8 6L8 7L9 7L9 8L8 8L8 9L9 9L9 12L8 12L8 11L7 11L7 10L6 10L6 11L5 11L5 10L4 10L4 11L3 11L3 9L4 9L4 8L0 8L0 12L1 12L1 13L0 13L0 15L1 15L1 16L0 16L0 18L1 18L1 16L2 16L2 18L3 18L3 19L0 19L0 22L1 22L1 20L3 20L3 22L2 22L2 23L3 23L3 25L2 25L2 24L1 24L1 25L0 25L0 26L1 26L1 25L2 25L2 26L3 26L3 27L2 27L2 28L3 28L3 29L2 29L2 30L1 30L1 31L0 31L0 34L2 34L2 35L1 35L1 40L2 40L2 41L0 41L0 42L1 42L1 43L2 43L2 44L0 44L0 45L1 45L1 46L0 46L0 48L5 48L5 47L8 47L8 48L9 48L9 49L8 49L8 50L9 50L9 51L11 51L11 50L13 50L13 51L14 51L14 52L16 52L16 51L17 51L17 50L19 50L19 51L18 51L18 52L19 52L19 54L18 54L18 53L17 53L17 54L16 54L16 53L15 53L15 56L14 56L14 57L15 57L15 56L16 56L16 57L18 57L18 55L20 55L20 56L19 56L19 57L20 57L20 56L21 56L21 57L22 57L22 56L21 56L21 55L20 55L20 53L21 53L21 54L22 54L22 55L23 55L23 54L25 54L25 55L24 55L24 57L26 57L26 56L25 56L25 55L26 55L26 54L25 54L25 53L28 53L28 54L32 54L32 53L33 53L33 55L32 55L32 57L33 57L33 56L36 56L36 55L37 55L37 53L36 53L36 51L35 51L35 50L34 50L34 47L35 47L35 49L37 49L37 52L38 52L38 50L39 50L39 55L38 55L38 56L37 56L37 57L38 57L38 56L39 56L39 55L40 55L40 57L41 57L41 56L42 56L42 57L43 57L43 54L44 54L44 53L45 53L45 55L44 55L44 56L46 56L46 54L47 54L47 55L49 55L49 56L51 56L51 57L55 57L55 56L54 56L54 55L55 55L55 54L56 54L56 52L55 52L55 51L56 51L56 50L55 50L55 51L53 51L53 50L54 50L54 49L55 49L55 48L56 48L56 49L57 49L57 43L56 43L56 44L55 44L55 45L54 45L54 46L52 46L52 48L51 48L51 46L50 46L50 45L51 45L51 44L52 44L52 45L53 45L53 44L52 44L52 43L53 43L53 42L54 42L54 43L55 43L55 42L57 42L57 40L56 40L56 41L55 41L55 42L54 42L54 41L50 41L50 39L49 39L49 41L48 41L48 40L47 40L47 41L45 41L45 40L46 40L46 39L48 39L48 38L49 38L49 37L50 37L50 38L51 38L51 37L53 37L53 38L54 38L54 37L53 37L53 35L54 35L54 33L53 33L53 32L52 32L52 31L55 31L55 29L56 29L56 30L57 30L57 29L56 29L56 28L55 28L55 27L56 27L56 26L55 26L55 24L54 24L54 23L57 23L57 22L54 22L54 21L55 21L55 20L54 20L54 19L56 19L56 17L55 17L55 18L54 18L54 19L53 19L53 20L50 20L50 19L49 19L49 18L48 18L48 16L49 16L49 17L52 17L52 18L51 18L51 19L52 19L52 18L53 18L53 17L54 17L54 16L55 16L55 15L56 15L56 13L55 13L55 12L56 12L56 11L57 11L57 10L55 10L55 12L54 12L54 9L55 9L55 8L52 8L52 10L53 10L53 12L54 12L54 14L53 14L53 13L52 13L52 14L51 14L51 13L50 13L50 11L49 11L49 13L50 13L50 15L51 15L51 16L49 16L49 15L48 15L48 13L47 13L47 14L46 14L46 12L47 12L47 11L48 11L48 10L49 10L49 9L50 9L50 8L49 8L49 9L47 9L47 10L46 10L46 8L48 8L48 7L49 7L49 6L48 6L48 7L47 7L47 5L48 5L48 0L42 0L42 2L43 2L43 3L41 3L41 4L40 4L40 2L39 2L39 1L40 1L40 0L39 0L39 1L38 1L38 0L35 0L35 3L36 3L36 4L35 4L35 5L34 5L34 4L33 4L33 1L32 1L32 4L33 4L33 5L32 5L32 7L31 7L31 4L26 4L26 2L24 2L24 1L25 1L25 0L24 0L24 1L23 1L23 0L21 0L21 1L22 1L22 2L23 2L23 4L22 4L22 3L21 3L21 4L22 4L22 5L20 5L20 4L19 4L19 3L20 3L20 0L18 0L18 2L17 2L17 3L18 3L18 4L17 4L17 5L14 5L14 4L12 4L12 3L13 3L13 2L14 2L14 3L15 3L15 2L16 2L16 0L14 0L14 1L12 1L12 0L11 0L11 2L10 2L10 0ZM29 0L29 2L28 2L28 3L29 3L29 2L30 2L30 3L31 3L31 2L30 2L30 1L31 1L31 0ZM14 1L14 2L15 2L15 1ZM36 1L36 2L38 2L38 1ZM43 1L43 2L44 2L44 4L45 4L45 3L46 3L46 5L45 5L45 7L46 7L46 5L47 5L47 3L46 3L46 2L47 2L47 1L46 1L46 2L44 2L44 1ZM9 2L9 3L10 3L10 2ZM11 2L11 3L12 3L12 2ZM37 3L37 4L39 4L39 5L38 5L38 6L37 6L37 5L36 5L36 6L35 6L35 7L34 7L34 5L33 5L33 8L32 8L32 10L31 10L31 12L28 12L28 11L26 11L26 12L27 12L27 13L28 13L28 16L30 16L30 17L27 17L27 18L26 18L26 17L23 17L23 16L25 16L25 15L26 15L26 16L27 16L27 14L25 14L25 13L22 13L22 12L23 12L23 11L21 11L21 12L19 12L19 10L18 10L18 9L19 9L19 8L18 8L18 6L19 6L19 7L20 7L20 10L21 10L21 9L22 9L22 8L23 8L23 10L24 10L24 12L25 12L25 10L27 10L27 9L26 9L26 6L25 6L25 5L26 5L26 4L24 4L24 6L23 6L23 5L22 5L22 6L21 6L21 7L20 7L20 6L19 6L19 5L17 5L17 7L16 7L16 6L15 6L15 8L13 8L13 9L14 9L14 11L15 11L15 10L16 10L16 16L15 16L15 15L13 15L13 14L14 14L14 13L13 13L13 11L12 11L12 10L11 10L11 11L10 11L10 12L9 12L9 13L10 13L10 14L11 14L11 15L13 15L13 16L15 16L15 17L12 17L12 16L11 16L11 18L9 18L9 17L8 17L8 16L9 16L9 14L8 14L8 16L7 16L7 15L5 15L5 14L7 14L7 13L6 13L6 12L7 12L7 11L6 11L6 12L3 12L3 11L2 11L2 9L1 9L1 11L2 11L2 13L1 13L1 15L2 15L2 13L3 13L3 14L4 14L4 15L3 15L3 16L4 16L4 17L3 17L3 18L5 18L5 17L6 17L6 18L7 18L7 19L6 19L6 20L5 20L5 19L4 19L4 21L5 21L5 24L4 24L4 25L3 25L3 26L5 26L5 24L8 24L8 26L10 26L10 25L9 25L9 24L8 24L8 23L6 23L6 22L10 22L10 23L11 23L11 25L15 25L15 23L16 23L16 26L18 26L18 24L19 24L19 25L21 25L21 29L18 29L18 28L19 28L19 27L15 27L15 26L13 26L13 28L10 28L10 27L9 27L9 28L10 28L10 29L9 29L9 30L11 30L11 29L13 29L13 30L12 30L12 31L9 31L9 32L13 32L13 30L14 30L14 31L16 31L16 32L14 32L14 34L13 34L13 35L14 35L14 34L16 34L16 35L17 35L17 36L14 36L14 38L13 38L13 40L15 40L15 38L17 38L17 39L16 39L16 41L17 41L17 45L16 45L16 44L15 44L15 43L12 43L12 45L11 45L11 44L10 44L10 43L11 43L11 40L12 40L12 39L11 39L11 38L12 38L12 36L11 36L11 35L12 35L12 33L10 33L10 34L11 34L11 35L10 35L10 36L9 36L9 37L11 37L11 38L10 38L10 39L11 39L11 40L10 40L10 43L9 43L9 44L7 44L7 43L8 43L8 42L7 42L7 41L8 41L8 40L9 40L9 39L8 39L8 40L7 40L7 39L5 39L5 38L8 38L8 37L6 37L6 36L8 36L8 34L7 34L7 33L8 33L8 32L7 32L7 31L5 31L5 32L4 32L4 31L3 31L3 30L2 30L2 31L1 31L1 32L4 32L4 33L6 33L6 34L7 34L7 35L2 35L2 39L3 39L3 38L4 38L4 39L5 39L5 40L4 40L4 41L2 41L2 43L3 43L3 44L2 44L2 45L4 45L4 46L3 46L3 47L5 47L5 46L8 46L8 45L10 45L10 47L9 47L9 48L10 48L10 49L11 49L11 47L13 47L13 46L15 46L15 48L13 48L13 49L14 49L14 50L15 50L15 51L16 51L16 50L17 50L17 49L18 49L18 47L17 47L17 45L19 45L19 43L18 43L18 41L19 41L19 42L20 42L20 46L21 46L21 44L22 44L22 47L23 47L23 48L21 48L21 47L19 47L19 48L20 48L20 49L22 49L22 50L23 50L23 48L24 48L24 50L26 50L26 48L25 48L25 47L23 47L23 44L24 44L24 45L25 45L25 46L28 46L28 48L29 48L29 46L30 46L30 47L31 47L31 46L32 46L32 49L31 49L31 53L32 53L32 51L33 51L33 52L34 52L34 53L35 53L35 51L33 51L33 50L32 50L32 49L33 49L33 47L34 47L34 46L35 46L35 47L36 47L36 48L38 48L38 49L41 49L41 50L40 50L40 55L42 55L42 54L43 54L43 52L46 52L46 53L47 53L47 54L49 54L49 55L51 55L51 54L52 54L52 56L53 56L53 55L54 55L54 54L55 54L55 52L53 52L53 53L50 53L50 54L49 54L49 53L48 53L48 51L46 51L46 50L47 50L47 49L48 49L48 48L49 48L49 47L50 47L50 46L48 46L48 45L49 45L49 44L47 44L47 43L48 43L48 42L45 42L45 44L43 44L43 42L44 42L44 41L41 41L41 40L40 40L40 39L42 39L42 40L45 40L45 39L46 39L46 38L47 38L47 37L48 37L48 35L47 35L47 34L48 34L48 33L49 33L49 35L50 35L50 33L49 33L49 31L47 31L47 33L46 33L46 32L44 32L44 31L46 31L46 30L48 30L48 29L46 29L46 27L47 27L47 28L48 28L48 27L47 27L47 26L49 26L49 25L52 25L52 26L54 26L54 25L53 25L53 24L51 24L51 23L52 23L52 22L53 22L53 21L54 21L54 20L53 20L53 21L50 21L50 20L49 20L49 19L48 19L48 18L46 18L46 19L45 19L45 20L44 20L44 19L43 19L43 18L44 18L44 17L41 17L41 16L43 16L43 14L44 14L44 16L46 16L46 17L47 17L47 16L48 16L48 15L46 15L46 14L45 14L45 12L46 12L46 10L45 10L45 8L44 8L44 6L43 6L43 4L41 4L41 5L40 5L40 4L39 4L39 3ZM10 4L10 6L9 6L9 7L10 7L10 8L9 8L9 9L10 9L10 8L11 8L11 9L12 9L12 8L11 8L11 7L12 7L12 6L11 6L11 4ZM27 5L27 8L30 8L30 5ZM39 5L39 6L38 6L38 8L36 8L36 7L37 7L37 6L36 6L36 7L35 7L35 8L33 8L33 10L32 10L32 12L34 12L34 13L36 13L36 14L37 14L37 15L36 15L36 16L38 16L38 17L39 17L39 18L41 18L41 17L39 17L39 16L41 16L41 13L39 13L39 11L38 11L38 10L36 10L36 11L37 11L37 12L35 12L35 11L34 11L34 9L38 9L38 8L40 8L40 9L39 9L39 10L40 10L40 9L41 9L41 11L40 11L40 12L42 12L42 13L44 13L44 11L45 11L45 10L44 10L44 9L42 9L42 8L43 8L43 6L42 6L42 8L41 8L41 6L40 6L40 5ZM10 6L10 7L11 7L11 6ZM13 6L13 7L14 7L14 6ZM22 6L22 7L23 7L23 8L24 8L24 10L25 10L25 8L24 8L24 7L25 7L25 6L24 6L24 7L23 7L23 6ZM28 6L28 7L29 7L29 6ZM39 6L39 7L40 7L40 6ZM6 8L6 9L7 9L7 8ZM16 8L16 9L18 9L18 8ZM56 8L56 9L57 9L57 8ZM29 9L29 10L30 10L30 9ZM17 10L17 12L18 12L18 13L19 13L19 14L18 14L18 15L17 15L17 16L20 16L20 17L21 17L21 19L23 19L23 20L21 20L21 22L19 22L19 24L20 24L20 23L21 23L21 22L22 22L22 21L23 21L23 23L22 23L22 24L23 24L23 26L22 26L22 27L23 27L23 26L24 26L24 24L25 24L25 22L29 22L29 23L28 23L28 24L29 24L29 23L30 23L30 22L31 22L31 19L29 19L29 18L28 18L28 19L26 19L26 18L23 18L23 17L22 17L22 15L24 15L24 14L22 14L22 15L21 15L21 16L20 16L20 14L21 14L21 13L19 13L19 12L18 12L18 10ZM42 10L42 11L43 11L43 10ZM37 12L37 14L38 14L38 12ZM12 13L12 14L13 14L13 13ZM30 13L30 14L32 14L32 17L33 17L33 18L32 18L32 20L33 20L33 21L35 21L35 24L34 24L34 23L33 23L33 22L32 22L32 23L31 23L31 24L30 24L30 25L29 25L29 26L28 26L28 25L27 25L27 26L26 26L26 29L25 29L25 30L24 30L24 28L25 28L25 27L24 27L24 28L23 28L23 29L21 29L21 34L22 34L22 33L24 33L24 34L25 34L25 36L23 36L23 35L21 35L21 36L23 36L23 38L22 38L22 40L21 40L21 38L20 38L20 37L19 37L19 36L18 36L18 37L17 37L17 38L18 38L18 39L19 39L19 40L20 40L20 41L22 41L22 44L23 44L23 43L24 43L24 44L25 44L25 45L26 45L26 44L25 44L25 42L27 42L27 43L28 43L28 42L29 42L29 44L28 44L28 45L29 45L29 44L30 44L30 43L31 43L31 44L33 44L33 45L32 45L32 46L34 46L34 43L31 43L31 42L30 42L30 41L31 41L31 40L32 40L32 41L34 41L34 42L35 42L35 46L37 46L37 47L38 47L38 48L41 48L41 47L42 47L42 48L43 48L43 51L42 51L42 52L41 52L41 54L42 54L42 52L43 52L43 51L45 51L45 50L46 50L46 47L47 47L47 48L48 48L48 46L46 46L46 45L47 45L47 44L46 44L46 45L44 45L44 46L43 46L43 45L42 45L42 42L41 42L41 41L40 41L40 42L38 42L38 41L39 41L39 39L36 39L36 37L37 37L37 38L40 38L40 37L41 37L41 38L42 38L42 39L44 39L44 38L46 38L46 37L47 37L47 35L46 35L46 37L44 37L44 35L45 35L45 34L43 34L43 33L41 33L41 32L42 32L42 31L44 31L44 29L45 29L45 28L44 28L44 27L45 27L45 25L46 25L46 23L45 23L45 21L44 21L44 22L43 22L43 21L42 21L42 22L41 22L41 20L39 20L39 19L38 19L38 18L37 18L37 19L36 19L36 20L37 20L37 19L38 19L38 20L39 20L39 21L40 21L40 22L41 22L41 25L40 25L40 23L39 23L39 25L38 25L38 26L37 26L37 27L36 27L36 28L37 28L37 27L39 27L39 28L38 28L38 29L36 29L36 30L35 30L35 29L34 29L34 31L33 31L33 33L32 33L32 32L31 32L31 31L32 31L32 29L33 29L33 28L34 28L34 27L35 27L35 24L36 24L36 25L37 25L37 24L38 24L38 23L37 23L37 21L35 21L35 19L33 19L33 18L35 18L35 17L33 17L33 15L34 15L34 14L32 14L32 13ZM39 14L39 15L38 15L38 16L39 16L39 15L40 15L40 14ZM52 14L52 17L53 17L53 14ZM4 15L4 16L5 16L5 15ZM30 15L30 16L31 16L31 15ZM6 16L6 17L7 17L7 18L8 18L8 17L7 17L7 16ZM15 17L15 18L16 18L16 19L17 19L17 17ZM19 18L19 19L20 19L20 18ZM7 19L7 20L6 20L6 21L8 21L8 19ZM9 19L9 21L11 21L11 20L12 20L12 19ZM13 19L13 21L12 21L12 23L13 23L13 22L14 22L14 20L15 20L15 19ZM25 19L25 20L23 20L23 21L24 21L24 22L25 22L25 21L26 21L26 19ZM42 19L42 20L43 20L43 19ZM16 20L16 23L17 23L17 24L18 24L18 22L17 22L17 20ZM27 20L27 21L28 21L28 20ZM29 20L29 21L30 21L30 20ZM46 20L46 21L47 21L47 22L49 22L49 21L47 21L47 20ZM56 20L56 21L57 21L57 20ZM3 22L3 23L4 23L4 22ZM26 23L26 24L27 24L27 23ZM32 23L32 24L33 24L33 23ZM36 23L36 24L37 24L37 23ZM42 23L42 24L44 24L44 25L41 25L41 27L40 27L40 25L39 25L39 27L40 27L40 29L42 29L42 30L39 30L39 29L38 29L38 30L39 30L39 32L35 32L35 31L34 31L34 32L35 32L35 33L33 33L33 34L32 34L32 35L33 35L33 36L31 36L31 34L30 34L30 36L28 36L28 35L29 35L29 33L31 33L31 32L30 32L30 31L28 31L28 32L25 32L25 31L23 31L23 30L22 30L22 31L23 31L23 32L25 32L25 34L28 34L28 35L26 35L26 36L25 36L25 37L24 37L24 39L23 39L23 40L22 40L22 41L23 41L23 42L25 42L25 41L26 41L26 39L27 39L27 38L29 38L29 37L30 37L30 39L28 39L28 40L30 40L30 39L32 39L32 40L33 40L33 39L34 39L34 41L35 41L35 42L36 42L36 45L37 45L37 46L38 46L38 47L39 47L39 44L41 44L41 42L40 42L40 43L39 43L39 44L38 44L38 42L36 42L36 39L34 39L34 38L35 38L35 37L36 37L36 36L35 36L35 34L36 34L36 35L38 35L38 36L37 36L37 37L40 37L40 36L39 36L39 35L41 35L41 34L40 34L40 33L39 33L39 32L41 32L41 31L42 31L42 30L43 30L43 27L44 27L44 25L45 25L45 23ZM48 23L48 24L47 24L47 25L49 25L49 24L50 24L50 23ZM56 24L56 25L57 25L57 24ZM6 25L6 26L7 26L7 25ZM30 25L30 26L31 26L31 28L33 28L33 27L34 27L34 26L33 26L33 25ZM32 26L32 27L33 27L33 26ZM0 27L0 29L1 29L1 27ZM3 27L3 28L4 28L4 27ZM5 27L5 30L8 30L8 27ZM27 27L27 30L30 30L30 27ZM49 27L49 30L52 30L52 27ZM6 28L6 29L7 29L7 28ZM13 28L13 29L14 29L14 30L17 30L17 31L18 31L18 32L19 32L19 34L18 34L18 33L17 33L17 32L16 32L16 33L17 33L17 34L18 34L18 35L19 35L19 34L20 34L20 31L18 31L18 30L17 30L17 29L16 29L16 28L15 28L15 29L14 29L14 28ZM28 28L28 29L29 29L29 28ZM50 28L50 29L51 29L51 28ZM53 28L53 29L55 29L55 28ZM36 30L36 31L37 31L37 30ZM56 31L56 32L55 32L55 33L56 33L56 32L57 32L57 31ZM6 32L6 33L7 33L7 32ZM28 32L28 33L29 33L29 32ZM51 32L51 36L50 36L50 37L51 37L51 36L52 36L52 35L53 35L53 33L52 33L52 32ZM37 33L37 34L38 34L38 35L39 35L39 34L38 34L38 33ZM42 34L42 35L43 35L43 34ZM55 34L55 36L56 36L56 35L57 35L57 34ZM30 36L30 37L31 37L31 36ZM41 36L41 37L42 37L42 38L43 38L43 37L42 37L42 36ZM26 37L26 38L27 38L27 37ZM32 37L32 39L33 39L33 38L34 38L34 37ZM56 38L56 39L57 39L57 38ZM24 39L24 41L25 41L25 39ZM51 39L51 40L55 40L55 39ZM6 40L6 41L7 41L7 40ZM17 40L17 41L18 41L18 40ZM37 40L37 41L38 41L38 40ZM12 41L12 42L13 42L13 41ZM27 41L27 42L28 42L28 41ZM3 42L3 43L5 43L5 42ZM6 42L6 43L7 43L7 42ZM49 42L49 43L50 43L50 44L51 44L51 42ZM6 44L6 45L7 45L7 44ZM14 44L14 45L15 45L15 44ZM12 45L12 46L13 46L13 45ZM55 45L55 47L54 47L54 48L55 48L55 47L56 47L56 45ZM1 46L1 47L2 47L2 46ZM40 46L40 47L41 47L41 46ZM42 46L42 47L43 47L43 46ZM44 46L44 49L45 49L45 47L46 47L46 46ZM16 47L16 48L17 48L17 47ZM6 48L6 49L7 49L7 48ZM15 49L15 50L16 50L16 49ZM27 49L27 52L30 52L30 49ZM49 49L49 52L52 52L52 49ZM28 50L28 51L29 51L29 50ZM50 50L50 51L51 51L51 50ZM19 51L19 52L21 52L21 51ZM22 51L22 53L23 53L23 52L24 52L24 53L25 53L25 52L26 52L26 51L25 51L25 52L24 52L24 51ZM11 52L11 54L12 54L12 55L14 55L14 54L13 54L13 53L12 53L12 52ZM8 53L8 57L10 57L10 56L9 56L9 55L10 55L10 54L9 54L9 53ZM53 53L53 54L54 54L54 53ZM17 54L17 55L18 55L18 54ZM34 54L34 55L35 55L35 54ZM27 55L27 56L28 56L28 57L29 57L29 55ZM30 55L30 56L31 56L31 55ZM56 55L56 56L57 56L57 55ZM12 56L12 57L13 57L13 56ZM47 56L47 57L48 57L48 56ZM0 0L0 7L7 7L7 0ZM1 1L1 6L6 6L6 1ZM2 2L2 5L5 5L5 2ZM50 0L50 7L57 7L57 0ZM51 1L51 6L56 6L56 1ZM52 2L52 5L55 5L55 2ZM0 50L0 57L7 57L7 50ZM1 51L1 56L6 56L6 51ZM2 52L2 55L5 55L5 52Z" fill="#000000"/></g></g></svg>
